<svg width="35" height="35" viewBox="0 0 35 35" fill="none" xmlns="http://www.w3.org/2000/svg">
<g clip-path="url(#clip0_22104_6493)">
<path d="M34.8879 17.4371C34.8879 27.0673 27.0809 34.8741 17.4507 34.8741C7.82052 34.8741 0.0136719 27.0673 0.0136719 17.4371C0.0136719 7.80683 7.82052 0 17.4507 0C27.0809 0 34.8879 7.80683 34.8879 17.4371Z" fill="#F15525"/>
<path d="M21.4009 8.68634H13.2122C10.5471 8.68634 8.37891 10.8545 8.37891 13.5196V21.7084C8.37891 24.3735 10.5471 26.5416 13.2122 26.5416H21.4011C24.0659 26.5416 26.2341 24.3735 26.2341 21.7084V13.5196C26.2341 10.8545 24.0659 8.68634 21.4009 8.68634ZM17.3065 22.4961C14.6145 22.4961 12.4244 20.306 12.4244 17.614C12.4244 14.9219 14.6145 12.7318 17.3065 12.7318C19.9986 12.7318 22.1888 14.9219 22.1888 17.614C22.1888 20.306 19.9986 22.4961 17.3065 22.4961ZM22.3054 13.8832C21.5099 13.8832 20.8628 13.2361 20.8628 12.4406C20.8628 11.645 21.5099 10.9978 22.3054 10.9978C23.101 10.9978 23.7481 11.645 23.7481 12.4406C23.7481 13.2361 23.101 13.8832 22.3054 13.8832Z" fill="white"/>
<path d="M17.3061 13.7787C15.1913 13.7787 13.4707 15.4992 13.4707 17.6141C13.4707 19.7288 15.1913 21.4495 17.3061 21.4495C19.421 21.4495 21.1414 19.7288 21.1414 17.6141C21.1414 15.4992 19.421 13.7787 17.3061 13.7787Z" fill="white"/>
<path d="M22.306 12.0446C22.0878 12.0446 21.9102 12.2222 21.9102 12.4404C21.9102 12.6587 22.0878 12.8363 22.306 12.8363C22.5243 12.8363 22.7021 12.6588 22.7021 12.4404C22.7021 12.222 22.5243 12.0446 22.306 12.0446Z" fill="white"/>
</g>
<defs>
<clipPath id="clip0_22104_6493">
<rect width="35" height="35" fill="white"/>
</clipPath>
</defs>
</svg>
